<?xml version="1.0" encoding="UTF-8"?>
<svg version="1.1" xmlns="http://www.w3.org/2000/svg" width="250" height="250">
<path d="M0 0 C5.61 0 11.22 0 17 0 C23.13591387 17.85916652 28.58659499 35.9121841 34 54 C35.84245982 51.23631027 36.64395648 49.31995896 37.58813477 46.19311523 C37.88506729 45.21878036 38.18199982 44.2444455 38.4879303 43.24058533 C38.80257736 42.19052811 39.11722443 41.14047089 39.44140625 40.05859375 C39.76914536 38.97997574 40.09688446 37.90135773 40.43455505 36.79005432 C41.481882 33.3406005 42.52251002 29.88917226 43.5625 26.4375 C44.60714982 22.98259958 45.65319835 19.52813234 46.70115662 16.07423401 C47.35328811 13.92363804 48.00329635 11.77239691 48.65101624 9.62046814 C48.9447966 8.64928543 49.23857697 7.67810272 49.54125977 6.67749023 C49.79948013 5.82050034 50.0577005 4.96351044 50.32374573 4.08055115 C51 2 51 2 52 0 C57.28 0 62.56 0 68 0 C70.28582559 7.33014415 72.56429343 14.66251883 74.8359375 21.99707031 C75.60995307 24.49249132 76.38598462 26.98728795 77.1640625 29.48144531 C78.28133754 33.06413595 79.39137157 36.64900075 80.5 40.234375 C80.84998047 41.35116638 81.19996094 42.46795776 81.56054688 43.61859131 C81.88087891 44.65936829 82.20121094 45.70014526 82.53125 46.77246094 C82.95760742 48.14479889 82.95760742 48.14479889 83.39257812 49.54486084 C84 52 84 52 84 56 C84.66 56 85.32 56 86 56 C86.10657928 55.40619537 86.21315857 54.81239075 86.32296753 54.20059204 C87.5601749 47.63939734 89.2820544 41.33456113 91.2578125 34.9609375 C91.56572723 33.95406891 91.87364197 32.94720032 92.19088745 31.90982056 C93.16440422 28.73013959 94.14458155 25.55255885 95.125 22.375 C95.79080802 20.20456306 96.45617683 18.03399134 97.12109375 15.86328125 C98.74232481 10.5739498 100.3695279 5.28648979 102 0 C107.94 0 113.88 0 120 0 C118.27865196 8.6486798 115.6535983 17.00094109 113.0625 25.41796875 C112.57662518 27.00490419 112.09103434 28.59192661 111.60571289 30.17903137 C110.59240034 33.49035376 109.57689701 36.80099268 108.55957031 40.11108398 C107.25881531 44.34338065 105.96169149 48.57677836 104.66596985 52.8106184 C103.4242746 56.86758101 102.18104064 60.92407147 100.9375 64.98046875 C100.70225616 65.74809225 100.46701233 66.51571575 100.22463989 67.30660057 C99.55553613 69.48875404 98.88537279 71.67057905 98.21484375 73.85229492 C97.83448975 75.09089767 97.45413574 76.32950043 97.06225586 77.6056366 C96.07857099 80.74893196 95.04153452 83.87539643 94 87 C89.05 87 84.1 87 79 87 C72.53359539 67.70776713 66.13208033 48.4017631 60 29 C57.52546482 35.42223537 55.35452987 41.91547819 53.2421875 48.46484375 C52.5274067 50.66733814 51.81256109 52.86981149 51.09765625 55.07226562 C49.97955541 58.52414877 48.86244464 61.97634773 47.74658203 65.42895508 C46.66437501 68.77509759 45.57850182 72.12003282 44.4921875 75.46484375 C44.15677948 76.50640121 43.82137146 77.54795868 43.47579956 78.62107849 C43.16522614 79.57619827 42.85465271 80.53131805 42.53466797 81.51538086 C42.26169891 82.35951035 41.98872986 83.20363983 41.70748901 84.073349 C41 86 41 86 40 87 C37.64686445 87.07271741 35.29166332 87.08370868 32.9375 87.0625 C31.00197266 87.04896484 31.00197266 87.04896484 29.02734375 87.03515625 C28.02832031 87.02355469 27.02929688 87.01195312 26 87 C23.12234479 80.76443114 21.16896059 74.34059709 19.19921875 67.76953125 C18.84036087 66.58389084 18.48150299 65.39825043 18.11177063 64.17668152 C17.15934256 61.02720073 16.21041198 57.87669461 15.26318359 54.72564697 C14.31972344 51.59028242 13.37150651 48.4563573 12.42382812 45.32226562 C10.95825041 40.4735031 9.49757206 35.62330569 8.04052734 30.77197266 C6.74767908 26.47031111 5.4417303 22.17312874 4.11962891 17.88037109 C3.83642288 16.95487961 3.55321686 16.02938812 3.26142883 15.07585144 C2.74245006 13.38120858 2.21930628 11.68783299 1.69108582 9.99604797 C0.61833774 6.47771091 0 3.71267688 0 0 Z " fill="#000000" transform="translate(52,81)"/>
<path d="M0 0 C3.79853672 1.7956719 5.52011124 3.29616315 7.875 6.75 C9.2361704 10.68227005 9.74677599 13.88862888 9 18 C6.97306628 21.83669597 4.89928574 24.99766408 1 27 C-3.49707728 28.10922174 -6.91402194 28.38931289 -11.3125 26.8125 C-15.09158918 24.26381195 -17.5397545 22.38073649 -19 18 C-19.54508569 13.30868877 -19.44834676 9.89669352 -17.3125 5.625 C-12.24080952 -0.13205406 -7.46520316 -1.06474853 0 0 Z " fill="#007AFF" transform="translate(191,142)"/>
</svg>
